<svg width="550" height="550" viewBox="0 0 550 550" fill="none" xmlns="http://www.w3.org/2000/svg">
<path d="M0 40C0 17.9086 17.9086 0 40 0H493C524.48 0 550 25.5198 550 57V493C550 524.48 524.48 550 493 550H57C25.5198 550 0 524.48 0 493V40Z" fill="white"/>
<path d="M144.359 99.8188C115.287 101.95 104.318 112.87 100.697 146.591C98.1412 170.562 97.1827 182.548 95.9048 206.467C94.5737 231.504 80.1438 250.522 65.2347 259.418C60.9218 261.868 60.9218 267.675 65.2347 270.125C79.5581 277.636 94.3074 294.417 95.8516 323.822C97.1295 348.22 98.0879 360.419 100.644 384.817C103.945 416.14 116.831 430.15 145.957 432.281M404.043 432.281C433.116 430.15 446.055 416.14 449.356 384.817C451.912 360.419 452.87 348.22 454.148 323.822C455.639 294.683 470.442 277.903 484.765 270.125C489.078 267.728 489.078 262.135 484.765 259.418C469.856 250.522 455.426 231.557 454.095 206.467C452.817 182.495 451.858 170.509 449.303 146.591C445.735 112.817 434.766 101.95 405.64 99.8188" stroke="black" stroke-width="30" stroke-linecap="round"/>
<path d="M183 167H304C335.48 167 361 192.52 361 224C361 255.48 335.48 281 304 281H249M316 281L366 365" stroke="black" stroke-width="30" stroke-linecap="round"/>
</svg>
